<svg width="16" height="16" viewBox="0 0 16 16" fill="none" xmlns="http://www.w3.org/2000/svg">
<path d="M14 2H13.3333V0.666667C13.3333 0.298667 13.0347 0 12.6667 0H12C11.632 0 11.3333 0.298667 11.3333 0.666667V2H4.66667V0.666667C4.66667 0.298667 4.368 0 4 0H3.33333C2.96533 0 2.66667 0.298667 2.66667 0.666667V2H2C0.897333 2 0 2.89733 0 4V14C0 15.1027 0.897333 16 2 16H14C15.1027 16 16 15.1027 16 14V4C16 2.89733 15.1027 2 14 2ZM14.6667 14C14.6667 14.3673 14.3673 14.6667 14 14.6667H2C1.63267 14.6667 1.33333 14.3673 1.33333 14V6.69333H14.6667V14Z" fill="#F68F54"/>
</svg>
