<svg width="16" height="17" viewBox="0 0 16 17" fill="none" xmlns="http://www.w3.org/2000/svg">
<path fill-rule="evenodd" clip-rule="evenodd" d="M6.89576 0.875C3.2253 0.875 0.25 3.85093 0.25 7.52168C0.25 11.1924 3.2253 14.1684 6.89576 14.1684C8.46135 14.1684 9.90047 13.6269 11.0362 12.7211L14.1205 15.8054C14.4133 16.0983 14.8882 16.0983 15.1811 15.8054C15.474 15.5125 15.474 15.0376 15.1811 14.7447L12.0965 11.6601C13.001 10.5246 13.5415 9.08626 13.5415 7.52168C13.5415 3.85093 10.5662 0.875 6.89576 0.875ZM1.75 7.52168C1.75 4.67914 4.05394 2.375 6.89576 2.375C9.73757 2.375 12.0415 4.67914 12.0415 7.52168C12.0415 10.3642 9.73757 12.6684 6.89576 12.6684C4.05394 12.6684 1.75 10.3642 1.75 7.52168Z" fill="#939DAE"/>
</svg>
