<svg width="17" height="19" viewBox="0 0 17 19" fill="none" xmlns="http://www.w3.org/2000/svg">
<path fill-rule="evenodd" clip-rule="evenodd" d="M2.72581 5.17742H3.67742H4.42742H11.7823H12.5323H13.4839V15.9113C13.4839 16.6016 12.9242 17.1613 12.2339 17.1613H3.97581C3.28545 17.1613 2.72581 16.6016 2.72581 15.9113V5.17742ZM14.2339 3.67742H12.5323V2.75C12.5323 1.23122 11.301 0 9.78226 0H6.42742C4.90864 0 3.67742 1.23122 3.67742 2.75V3.67742H1.97581H1.22581H0.75C0.335786 3.67742 0 4.01321 0 4.42742C0 4.84163 0.335786 5.17742 0.75 5.17742H1.22581V15.9113C1.22581 17.4301 2.45702 18.6613 3.97581 18.6613H12.2339C13.7527 18.6613 14.9839 17.4301 14.9839 15.9113V5.17742H15.4597C15.8739 5.17742 16.2097 4.84163 16.2097 4.42742C16.2097 4.01321 15.8739 3.67742 15.4597 3.67742H14.9839H14.2339ZM11.0323 2.75V3.67742H5.17742V2.75C5.17742 2.05964 5.73706 1.5 6.42742 1.5H9.78226C10.4726 1.5 11.0323 2.05964 11.0323 2.75ZM8.85484 8.10484C8.85484 7.69063 8.51905 7.35484 8.10484 7.35484C7.69063 7.35484 7.35484 7.69063 7.35484 8.10484V14.2339C7.35484 14.6481 7.69063 14.9839 8.10484 14.9839C8.51905 14.9839 8.85484 14.6481 8.85484 14.2339V8.10484Z" fill="#F78F54"/>
</svg>
